<svg>

  <def>

    <svg id="menu" width="30" height="30" viewBox="0 0 30 30" fill="none" xmlns="http://www.w3.org/2000/svg">
      <path fill-rule="evenodd" clip-rule="evenodd" d="M4.6875 21.5625C4.6875 21.3139 4.78627 21.0754 4.96209 20.8996C5.1379 20.7238 5.37636 20.625 5.625 20.625H24.375C24.6236 20.625 24.8621 20.7238 25.0379 20.8996C25.2137 21.0754 25.3125 21.3139 25.3125 21.5625C25.3125 21.8111 25.2137 22.0496 25.0379 22.2254C24.8621 22.4012 24.6236 22.5 24.375 22.5H5.625C5.37636 22.5 5.1379 22.4012 4.96209 22.2254C4.78627 22.0496 4.6875 21.8111 4.6875 21.5625ZM4.6875 14.0625C4.6875 13.8139 4.78627 13.5754 4.96209 13.3996C5.1379 13.2238 5.37636 13.125 5.625 13.125H24.375C24.6236 13.125 24.8621 13.2238 25.0379 13.3996C25.2137 13.5754 25.3125 13.8139 25.3125 14.0625C25.3125 14.3111 25.2137 14.5496 25.0379 14.7254C24.8621 14.9012 24.6236 15 24.375 15H5.625C5.37636 15 5.1379 14.9012 4.96209 14.7254C4.78627 14.5496 4.6875 14.3111 4.6875 14.0625ZM4.6875 6.5625C4.6875 6.31386 4.78627 6.0754 4.96209 5.89959C5.1379 5.72377 5.37636 5.625 5.625 5.625H24.375C24.6236 5.625 24.8621 5.72377 25.0379 5.89959C25.2137 6.0754 25.3125 6.31386 25.3125 6.5625C25.3125 6.81114 25.2137 7.0496 25.0379 7.22541C24.8621 7.40123 24.6236 7.5 24.375 7.5H5.625C5.37636 7.5 5.1379 7.40123 4.96209 7.22541C4.78627 7.0496 4.6875 6.81114 4.6875 6.5625Z" fill="white"/>
    </svg>

    <g id="close" width="30" height="30" viewBox="0 0 30 30" fill="none" xmlns="http://www.w3.org/2000/svg">
      <path fill-rule="evenodd" clip-rule="evenodd" d="M6.75 6.75002C6.94891 6.55111 7.2187 6.43936 7.5 6.43936C7.7813 6.43936 8.05109 6.55111 8.25 6.75002L23.25 21.75C23.4489 21.9489 23.5606 22.2187 23.5606 22.5C23.5606 22.7813 23.4489 23.0511 23.25 23.25C23.0511 23.4489 22.7813 23.5607 22.5 23.5607C22.2187 23.5607 21.9489 23.4489 21.75 23.25L6.75 8.25002C6.55109 8.05111 6.43934 7.78132 6.43934 7.50002C6.43934 7.21871 6.55109 6.94893 6.75 6.75002Z" fill="white"/>
      <path fill-rule="evenodd" clip-rule="evenodd" d="M23.25 6.75002C23.4489 6.94893 23.5607 7.21871 23.5607 7.50002C23.5607 7.78132 23.4489 8.0511 23.25 8.25001L8.25001 23.25C8.0511 23.4489 7.78132 23.5607 7.50001 23.5607C7.21871 23.5607 6.94893 23.4489 6.75002 23.25C6.55111 23.0511 6.43936 22.7813 6.43936 22.5C6.43936 22.2187 6.5511 21.9489 6.75002 21.75L21.75 6.75002C21.9489 6.5511 22.2187 6.43936 22.5 6.43936C22.7813 6.43936 23.0511 6.5511 23.25 6.75002Z" fill="white"/>
    </g>

    <g id="logo" width="72" height="16" viewBox="0 0 72 16" fill="none" xmlns="http://www.w3.org/2000/svg">
      <path fill-rule="evenodd" clip-rule="evenodd" d="M10.0517 11.4042C10.0517 13.917 8.04715 15.7394 4.8623 15.7394C3.94725 15.7136 3.0464 15.5077 2.21183 15.1336C1.37726 14.7594 0.625498 14.2245 0 13.5596L1.06468 12.3848C2.06196 13.3318 3.23464 14.2522 4.84085 14.2522C6.62553 14.2522 8.54885 13.2541 8.54885 11.4606C8.54885 9.97105 7.36315 8.99962 4.87072 8.2339C2.03055 7.36762 0.589787 6.19276 0.589787 3.98248C0.588255 1.79505 2.44187 0 5.08596 0C7.05983 0 8.29532 0.839619 9.49711 1.91238L8.45004 3.07276C7.39609 2.14095 6.39192 1.50933 5.15949 1.50933C3.63064 1.50857 2.1217 2.49295 2.1217 3.90857C2.1217 5.19162 2.86009 6.00914 5.46894 6.8061C7.85872 7.54057 10.0517 8.67886 10.0517 11.4027V11.4042ZM22.9389 1.4461C22.9389 2.13486 23.498 2.6941 24.1882 2.6941C24.5198 2.6941 24.8377 2.56229 25.0721 2.32838C25.2465 2.1538 25.3652 1.93186 25.4133 1.69042C25.4614 1.44897 25.4367 1.19878 25.3424 0.971236C25.248 0.74369 25.0883 0.548925 24.883 0.41138C24.6778 0.273834 24.4364 0.199636 24.1889 0.198095C23.4988 0.198095 22.9397 0.756571 22.9397 1.4461H22.9389ZM38.5491 14.9912C38.5491 14.9912 39.4759 15.7432 42.5658 15.7432L42.5643 15.7425C45.6143 15.7425 48.0899 13.5162 48.0899 10.4739C48.0899 7.43238 45.6158 5.21448 42.5658 5.21448C41.7003 5.19162 40.8424 5.36686 40.055 5.72724V0.456381H38.5491V14.9912ZM49.8539 10.4891C49.8539 13.5322 52.3249 16 55.3741 16C58.4234 16 60.8959 13.533 60.8967 10.4899C60.8967 7.44686 58.4242 4.97981 55.3749 4.97981C52.3264 4.97981 49.8539 7.4461 49.8539 10.4891ZM70.0338 15.4949H72L67.6524 10.3261L71.7066 5.47886H69.7519L66.6728 9.16038L63.5775 5.47886H61.6113L65.6946 10.3322L61.3777 15.4949H63.3317L66.6743 11.4987L70.0338 15.4949ZM55.3887 6.46857C54.5926 6.46909 53.8146 6.7047 53.1532 7.14552C52.4919 7.58635 51.977 8.21255 51.6738 8.94476C51.3693 9.67793 51.2895 10.4843 51.4445 11.2624C51.5994 12.0406 51.9822 12.7558 52.5447 13.3181C53.1059 13.879 53.8221 14.2613 54.6022 14.4162C55.3824 14.5711 56.1913 14.4918 56.926 14.1882C57.6615 13.8831 58.2897 13.3682 58.7314 12.7084C59.173 12.0486 59.4084 11.2735 59.4077 10.4808C59.4077 8.26514 57.6077 6.46857 55.3879 6.46857H55.3887ZM42.5742 6.72229C41.6739 6.73472 40.7985 7.01756 40.0626 7.53371V13.7394C40.8426 14.1178 41.7072 14.2904 42.5734 14.2408C44.7917 14.2408 46.5909 12.6941 46.5909 10.4815C46.5909 8.26895 44.7901 6.72152 42.5719 6.72152H42.5734L42.5742 6.72229ZM35.041 0.457143H33.5344V15.4926H35.041V0.457143ZM28.5174 0.457143H30.024V15.4926H28.5174V0.457143ZM13.9473 10.24L13.9427 10.2354L13.9473 10.2309V10.24ZM13.9473 15.4926V10.24L19.2117 15.4949H21.3419L16.0721 10.2354L20.8432 5.47124H18.7123L13.9466 10.2309V0.457143H12.4399V15.4926H13.9466H13.9473ZM23.4889 15.4949H24.9947V5.47124H23.4889V15.4949Z" fill="white"/>
    </g>

    <g id="eye" viewBox="0 0 80 80" fill="none" xmlns="http://www.w3.org/2000/svg">
      <path d="M40 0C34.7471 0 29.5457 1.03463 24.6927 3.04482C19.8396 5.05501 15.4301 8.00138 11.7157 11.7157C4.21427 19.2172 0 29.3913 0 40C0 50.6087 4.21427 60.7828 11.7157 68.2843C15.4301 71.9986 19.8396 74.945 24.6927 76.9552C29.5457 78.9654 34.7471 80 40 80C50.6087 80 60.7828 75.7857 68.2843 68.2843C75.7857 60.7828 80 50.6087 80 40C80 34.7471 78.9654 29.5457 76.9552 24.6927C74.945 19.8396 71.9986 15.4301 68.2843 11.7157C64.5699 8.00138 60.1604 5.05501 55.3073 3.04482C50.4543 1.03463 45.2529 0 40 0ZM40 56C29.48 56 20 49.72 16 40C21.52 26.76 36.76 20.48 50 26C56.32 28.64 61.36 33.68 64 40C60 49.72 50.52 56 40 56Z" fill="#3F2AFF"/>
      <path fill-rule="evenodd" clip-rule="evenodd" d="M40.3571 30.3125C37.6931 30.3125 35.1382 31.3708 33.2545 33.2545C31.3708 35.1382 30.3125 37.6931 30.3125 40.3571C30.3125 43.0211 31.3708 45.576 33.2545 47.4598C35.1382 49.3435 37.6931 50.4018 40.3571 50.4018C43.0212 50.4018 45.576 49.3435 47.4598 47.4598C49.3435 45.576 50.4018 43.0211 50.4018 40.3571C50.4018 37.6931 49.3435 35.1382 47.4598 33.2545C45.576 31.3708 43.0212 30.3125 40.3571 30.3125ZM40.3565 44.8772C42.8529 44.8772 44.8766 42.8535 44.8766 40.3571C44.8766 37.8608 42.8529 35.837 40.3565 35.837C37.8601 35.837 35.8364 37.8608 35.8364 40.3571C35.8364 42.8535 37.8601 44.8772 40.3565 44.8772Z" fill="#2E2B44"/>
    </g>

    <g id="fingers" viewBox="0 0 80 80" fill="none" xmlns="http://www.w3.org/2000/svg">
      <g clip-path="url(#clip0_40_19)">
        <path d="M37.9097 43.3674C37.9097 43.6773 38.1609 43.9286 38.4709 43.9286H39.1893C39.0672 43.5678 39.0232 43.1852 39.0602 42.8062H38.4709C38.1609 42.8062 37.9097 43.0574 37.9097 43.3674Z" fill="#2E2B44"/>
        <path d="M42.3529 24.3258C41.9161 24.2327 41.4601 24.317 41.0854 24.5601C40.7106 24.8033 40.4479 25.1853 40.355 25.6223L38.7387 35.9264C38.666 36.3185 38.3298 36.607 37.9312 36.6191C37.5326 36.6313 37.1794 36.3639 37.083 35.9769L35.1019 26.8626C35.0136 26.2532 34.5996 25.7407 34.0225 25.5261C33.4453 25.3115 32.7971 25.4291 32.3321 25.8327C31.8671 26.2362 31.6594 26.8615 31.7907 27.4631L33.6708 37.7559C33.8158 38.5397 33.8063 39.3442 33.6427 40.1243C34.2167 39.5579 34.8299 39.0328 35.4779 38.5529C36.1521 38.0386 36.9759 37.7588 37.8239 37.7559H41.5728L43.6494 26.3294C43.7442 25.8917 43.6607 25.4343 43.4174 25.0583C43.1741 24.6823 42.7911 24.4187 42.3529 24.3258Z" fill="#2E2B44"/>
        <path d="M43.1224 45.1183C42.8294 45.3305 42.4976 45.4831 42.1458 45.5673C42.222 45.6896 42.2895 45.8172 42.3479 45.9489C42.4233 46.1218 42.4069 46.3211 42.3041 46.4793C42.2012 46.6375 42.0258 46.7334 41.8372 46.7347C41.6153 46.7332 41.4152 46.6012 41.3264 46.3979C40.9683 45.5772 40.1566 45.0479 39.2611 45.051H38.4698C37.5399 45.051 36.7861 44.2972 36.7861 43.3673C36.7861 42.4374 37.5399 41.6836 38.4698 41.6836H40.1535C41.3933 41.6836 42.3984 40.6786 42.3984 39.4387V38.8775H37.8244C37.2172 38.8775 36.6265 39.0744 36.1407 39.4387C33.9407 41.0775 31.7351 43.5188 31.7351 46.3025C31.7335 47.5568 32.1261 48.7799 32.8576 49.7989L35.6637 53.6714C36.09 54.2629 36.2892 54.988 36.2249 55.7142H45.7657C45.7657 54.1877 45.6142 54.5918 48.0836 50.3882C48.733 49.0753 49.091 47.6376 49.1331 46.1734V43.5806L47.8254 45.6627C47.3098 46.5515 46.3162 47.0499 45.2955 46.9318C44.2748 46.8136 43.4213 46.1014 43.1224 45.1183Z" fill="#2E2B44"/>
        <path d="M40.1801 42.8061C40.0772 43.2768 40.221 43.7674 40.5617 44.1081C40.9024 44.4488 41.3931 44.5926 41.8638 44.4897C42.6776 44.3101 42.9862 43.676 43.4072 42.9576C45.6969 39.2984 45.6128 39.4443 45.6521 39.3321C46.1674 38.6082 45.9992 37.6036 45.276 37.0872C44.9119 36.8836 44.4814 36.8343 44.0807 36.9503C43.68 37.0663 43.3424 37.3379 43.1434 37.7045L42.9918 37.9459C43.314 38.1471 43.5125 38.4977 43.5194 38.8775V39.4387C43.5195 41.2875 42.0289 42.7907 40.1801 42.8061Z" fill="#2E2B44"/>
        <path d="M49.0224 38.8774C48.2935 38.4623 47.3663 38.7129 46.9458 39.4387C46.6203 39.9662 47.1703 39.0346 44.3698 43.5581C44.1489 43.9065 44.0762 44.3287 44.1678 44.731C44.315 45.3223 44.813 45.7607 45.4182 45.8318C46.0234 45.9029 46.6094 45.5919 46.8897 45.0509L49.4713 40.9484C49.9192 40.2525 49.7182 39.3254 49.0224 38.8774Z" fill="#2E2B44"/>
      </g>
      <path fill-rule="evenodd" clip-rule="evenodd" d="M24.6927 3.04482C29.5457 1.03463 34.7471 0 40 0C45.2529 0 50.4543 1.03463 55.3073 3.04482C60.1604 5.05501 64.5699 8.00138 68.2843 11.7157C71.9986 15.4301 74.945 19.8396 76.9552 24.6927C78.9654 29.5457 80 34.7471 80 40C80 50.6087 75.7857 60.7828 68.2843 68.2843C60.7828 75.7857 50.6087 80 40 80C34.7471 80 29.5457 78.9654 24.6927 76.9552C19.8396 74.945 15.4301 71.9986 11.7157 68.2843C4.21427 60.7828 0 50.6087 0 40C0 29.3913 4.21427 19.2172 11.7157 11.7157C15.4301 8.00138 19.8396 5.05501 24.6927 3.04482ZM40.3571 62.1429C52.3891 62.1429 62.1429 52.3891 62.1429 40.3571C62.1429 28.3252 52.3891 18.5714 40.3571 18.5714C28.3252 18.5714 18.5714 28.3252 18.5714 40.3571C18.5714 52.3891 28.3252 62.1429 40.3571 62.1429Z" fill="#3F2AFF"/>
      <defs>
        <clipPath id="clip0_40_19">
          <rect width="31.4286" height="31.4286" fill="white" transform="translate(25 24.2857)"/>
        </clipPath>
      </defs>
    </g>

    <g id="horn" viewBox="0 0 80 80" fill="none" xmlns="http://www.w3.org/2000/svg">
      <path fill-rule="evenodd" clip-rule="evenodd" d="M24.6927 3.04482C29.5457 1.03463 34.7471 0 40 0C45.2529 0 50.4543 1.03463 55.3073 3.04482C60.1604 5.05501 64.5699 8.00138 68.2843 11.7157C71.9986 15.4301 74.945 19.8396 76.9552 24.6927C78.9654 29.5457 80 34.7471 80 40C80 50.6087 75.7857 60.7828 68.2843 68.2843C60.7828 75.7857 50.6087 80 40 80C34.7471 80 29.5457 78.9654 24.6927 76.9552C19.8396 74.945 15.4301 71.9986 11.7157 68.2843C4.21427 60.7828 0 50.6087 0 40C0 29.3913 4.21427 19.2172 11.7157 11.7157C15.4301 8.00138 19.8396 5.05501 24.6927 3.04482ZM40.3571 62.1429C52.3891 62.1429 62.1429 52.3891 62.1429 40.3571C62.1429 28.3252 52.3891 18.5714 40.3571 18.5714C28.3252 18.5714 18.5714 28.3252 18.5714 40.3571C18.5714 52.3891 28.3252 62.1429 40.3571 62.1429Z" fill="#3F2AFF"/>
      <g clip-path="url(#clip0_40_6)">
        <path d="M39.9993 43.1122V33.8508C39.7367 33.8751 39.4772 33.916 39.2131 33.9282H31.6516C31.2327 33.9282 30.8927 34.2682 30.8927 34.6871V35.4459H28.6161C28.1972 35.4459 27.8572 35.7859 27.8572 36.2048V40.7581C27.8572 41.177 28.1972 41.517 28.6161 41.517H30.8927V42.2759C30.8927 42.6948 31.2327 43.0348 31.6516 43.0348H32.1115L35.1622 51.1669C35.3489 51.6541 35.7662 52.0078 36.2792 52.111C36.3809 52.1322 36.4826 52.1428 36.5828 52.1428C36.988 52.1428 37.3736 51.982 37.6498 51.6936L39.4726 49.8859C39.9386 49.42 40.0494 48.693 39.7519 48.1299L37.2051 43.0348H39.2207C39.4817 43.0469 39.7397 43.0879 39.9993 43.1122Z" fill="#2E2B44"/>
        <path d="M52.0179 28.2244C52.0028 28.1986 51.9891 28.1774 51.9694 28.1531C51.8859 28.0468 51.7812 27.9603 51.6522 27.9102C51.6476 27.9087 51.6446 27.9026 51.64 27.9011C51.6248 27.8966 51.6112 27.9042 51.596 27.8996C51.5277 27.8799 51.4594 27.8571 51.3835 27.8571C51.3319 27.8571 51.2864 27.8768 51.2363 27.8875C51.2075 27.8935 51.1801 27.8951 51.1513 27.9042C51.0208 27.9467 50.9085 28.0195 50.8189 28.1197C50.8128 28.1258 50.8037 28.1273 50.7977 28.1333C48.4315 31.0065 45.1319 32.928 41.5181 33.6322V43.3322C45.1319 44.0365 48.4315 45.9564 50.7977 48.8296C50.8037 48.8371 50.8144 48.8402 50.8219 48.8493C50.8751 48.9085 50.9403 48.9555 51.0102 48.995C51.0329 49.0087 51.0511 49.0284 51.0739 49.039C51.1695 49.08 51.2727 49.1058 51.3835 49.1058C51.47 49.1058 51.555 49.0906 51.64 49.0618C51.6446 49.0603 51.6476 49.0542 51.6522 49.0527C51.7812 49.0026 51.8859 48.9176 51.9694 48.8098C51.9876 48.7855 52.0013 48.7643 52.0179 48.7385C52.0908 48.6216 52.1424 48.4926 52.1424 48.3469V28.616C52.1424 28.4703 52.0908 28.3413 52.0179 28.2244Z" fill="#2E2B44"/>
      </g>
      <defs>
        <clipPath id="clip0_40_6">
          <rect width="24.2857" height="24.2857" fill="white" transform="translate(27.8572 27.8571)"/>
        </clipPath>
      </defs>
    </g>

    <g id="clock" width="24" height="24" viewBox="0 0 24 24" fill="none" xmlns="http://www.w3.org/2000/svg">
      <path d="M11.99 2C6.47 2 2 6.48 2 12C2 17.52 6.47 22 11.99 22C17.52 22 22 17.52 22 12C22 6.48 17.52 2 11.99 2ZM12 20C7.58 20 4 16.42 4 12C4 7.58 7.58 4 12 4C16.42 4 20 7.58 20 12C20 16.42 16.42 20 12 20Z" fill="white"/>
      <path d="M12.5 7H11V13L16.25 16.15L17 14.92L12.5 12.25V7Z" fill="white"/>
    </g>

    <g id="fb" width="24" height="24" viewBox="0 0 24 24" fill="none" xmlns="http://www.w3.org/2000/svg">
      <path d="M15.402 21V14.034H17.735L18.084 11.326H15.402V9.598C15.402 8.814 15.62 8.279 16.744 8.279H18.178V5.857C17.4838 5.78334 16.7861 5.74762 16.088 5.75C14.021 5.75 12.606 7.012 12.606 9.33V11.326H10.268V14.034H12.606V21H4C3.73478 21 3.48043 20.8946 3.29289 20.7071C3.10536 20.5196 3 20.2652 3 20V4C3 3.73478 3.10536 3.48043 3.29289 3.29289C3.48043 3.10536 3.73478 3 4 3H20C20.2652 3 20.5196 3.10536 20.7071 3.29289C20.8946 3.48043 21 3.73478 21 4V20C21 20.2652 20.8946 20.5196 20.7071 20.7071C20.5196 20.8946 20.2652 21 20 21H15.402V21Z" fill="white"/>
    </g>

    <g id="twitter" width="24" height="24" viewBox="0 0 24 24" fill="none" xmlns="http://www.w3.org/2000/svg">
      <path d="M22.1621 5.65593C21.3986 5.99362 20.589 6.2154 19.7601 6.31393C20.6338 5.79136 21.2878 4.96894 21.6001 3.99993C20.7801 4.48793 19.8811 4.82993 18.9441 5.01493C18.3147 4.34151 17.4804 3.89489 16.571 3.74451C15.6616 3.59413 14.728 3.74842 13.9153 4.18338C13.1026 4.61834 12.4564 5.30961 12.0772 6.14972C11.6979 6.98983 11.6068 7.93171 11.8181 8.82893C10.1552 8.74558 8.52838 8.31345 7.04334 7.56059C5.55829 6.80773 4.24818 5.75097 3.19805 4.45893C2.82634 5.09738 2.63101 5.82315 2.63205 6.56193C2.63205 8.01193 3.37005 9.29293 4.49205 10.0429C3.82806 10.022 3.17869 9.84271 2.59805 9.51993V9.57193C2.59825 10.5376 2.93242 11.4735 3.5439 12.221C4.15538 12.9684 5.00653 13.4814 5.95305 13.6729C5.33667 13.84 4.69036 13.8646 4.06305 13.7449C4.32992 14.5762 4.85006 15.3031 5.55064 15.824C6.25123 16.3449 7.09718 16.6337 7.97005 16.6499C7.10253 17.3313 6.10923 17.8349 5.04693 18.1321C3.98464 18.4293 2.87418 18.5142 1.77905 18.3819C3.69075 19.6114 5.91615 20.264 8.18905 20.2619C15.8821 20.2619 20.0891 13.8889 20.0891 8.36193C20.0891 8.18193 20.0841 7.99993 20.0761 7.82193C20.8949 7.23009 21.6017 6.49695 22.1631 5.65693L22.1621 5.65593Z" fill="white"/>
    </g>

    <g id="instagram" width="24" height="24" viewBox="0 0 24 24" fill="none" xmlns="http://www.w3.org/2000/svg">
      <path d="M12 2C14.717 2 15.056 2.01 16.122 2.06C17.187 2.11 17.912 2.277 18.55 2.525C19.21 2.779 19.766 3.123 20.322 3.678C20.8305 4.1779 21.224 4.78259 21.475 5.45C21.722 6.087 21.89 6.813 21.94 7.878C21.987 8.944 22 9.283 22 12C22 14.717 21.99 15.056 21.94 16.122C21.89 17.187 21.722 17.912 21.475 18.55C21.2247 19.2178 20.8311 19.8226 20.322 20.322C19.822 20.8303 19.2173 21.2238 18.55 21.475C17.913 21.722 17.187 21.89 16.122 21.94C15.056 21.987 14.717 22 12 22C9.283 22 8.944 21.99 7.878 21.94C6.813 21.89 6.088 21.722 5.45 21.475C4.78233 21.2245 4.17753 20.8309 3.678 20.322C3.16941 19.8222 2.77593 19.2175 2.525 18.55C2.277 17.913 2.11 17.187 2.06 16.122C2.013 15.056 2 14.717 2 12C2 9.283 2.01 8.944 2.06 7.878C2.11 6.812 2.277 6.088 2.525 5.45C2.77524 4.78218 3.1688 4.17732 3.678 3.678C4.17767 3.16923 4.78243 2.77573 5.45 2.525C6.088 2.277 6.812 2.11 7.878 2.06C8.944 2.013 9.283 2 12 2ZM12 7C10.6739 7 9.40215 7.52678 8.46447 8.46447C7.52678 9.40215 7 10.6739 7 12C7 13.3261 7.52678 14.5979 8.46447 15.5355C9.40215 16.4732 10.6739 17 12 17C13.3261 17 14.5979 16.4732 15.5355 15.5355C16.4732 14.5979 17 13.3261 17 12C17 10.6739 16.4732 9.40215 15.5355 8.46447C14.5979 7.52678 13.3261 7 12 7V7ZM18.5 6.75C18.5 6.41848 18.3683 6.10054 18.1339 5.86612C17.8995 5.6317 17.5815 5.5 17.25 5.5C16.9185 5.5 16.6005 5.6317 16.3661 5.86612C16.1317 6.10054 16 6.41848 16 6.75C16 7.08152 16.1317 7.39946 16.3661 7.63388C16.6005 7.8683 16.9185 8 17.25 8C17.5815 8 17.8995 7.8683 18.1339 7.63388C18.3683 7.39946 18.5 7.08152 18.5 6.75ZM12 9C12.7956 9 13.5587 9.31607 14.1213 9.87868C14.6839 10.4413 15 11.2044 15 12C15 12.7956 14.6839 13.5587 14.1213 14.1213C13.5587 14.6839 12.7956 15 12 15C11.2044 15 10.4413 14.6839 9.87868 14.1213C9.31607 13.5587 9 12.7956 9 12C9 11.2044 9.31607 10.4413 9.87868 9.87868C10.4413 9.31607 11.2044 9 12 9V9Z" fill="white"/>
    </g>

    <g id="youtube" width="24" height="24" viewBox="0 0 24 24" fill="none" xmlns="http://www.w3.org/2000/svg">
      <path d="M21.543 6.498C22 8.28 22 12 22 12C22 12 22 15.72 21.543 17.502C21.289 18.487 20.546 19.262 19.605 19.524C17.896 20 12 20 12 20C12 20 6.107 20 4.395 19.524C3.45 19.258 2.708 18.484 2.457 17.502C2 15.72 2 12 2 12C2 12 2 8.28 2.457 6.498C2.711 5.513 3.454 4.738 4.395 4.476C6.107 4 12 4 12 4C12 4 17.896 4 19.605 4.476C20.55 4.742 21.292 5.516 21.543 6.498V6.498ZM10 15.5L16 12L10 8.5V15.5Z" fill="white"/>
    </g>

  </def>

</svg>